<mxfile host="Electron" agent="Mozilla/5.0 (Windows NT 10.0; Win64; x64) AppleWebKit/537.36 (KHTML, like Gecko) draw.io/27.0.9 Chrome/134.0.6998.205 Electron/35.4.0 Safari/537.36" version="27.0.9">
  <diagram name="Page-1" id="J3Ed-Ajmu6mvHaIPHd32">
    <mxGraphModel dx="1042" dy="626" grid="1" gridSize="10" guides="1" tooltips="1" connect="1" arrows="1" fold="1" page="1" pageScale="1" pageWidth="850" pageHeight="1100" math="0" shadow="0">
      <root>
        <mxCell id="0" />
        <mxCell id="aZcO3HgMEun3apKBfQWt-92" value="backgrond" style="" parent="0" />
        <mxCell id="aZcO3HgMEun3apKBfQWt-89" value="&lt;pre&gt;&lt;font style=&quot;font-size: 67px; color: rgb(230, 230, 230);&quot; face=&quot;Times New Roman&quot;&gt;@Sunil_Sharma&lt;/font&gt;&lt;/pre&gt;&lt;pre&gt;&lt;font style=&quot;font-size: 67px; color: rgb(230, 230, 230);&quot; face=&quot;Times New Roman&quot;&gt;&lt;br&gt;&lt;/font&gt;&lt;/pre&gt;&lt;pre&gt;&lt;font style=&quot;font-size: 67px; color: rgb(230, 230, 230);&quot; face=&quot;Times New Roman&quot;&gt;&lt;br&gt;&lt;/font&gt;&lt;/pre&gt;&lt;pre&gt;&lt;font style=&quot;color: rgb(230, 230, 230);&quot;&gt;&lt;br&gt;&lt;/font&gt;&lt;/pre&gt;&lt;pre&gt;&lt;font style=&quot;color: rgb(230, 230, 230);&quot;&gt;&lt;br&gt;&lt;/font&gt;&lt;/pre&gt;&lt;pre&gt;&lt;font style=&quot;color: rgb(230, 230, 230);&quot;&gt;&lt;br&gt;&lt;/font&gt;&lt;/pre&gt;&lt;pre&gt;&lt;font style=&quot;color: rgb(230, 230, 230);&quot;&gt;&lt;br&gt;&lt;/font&gt;&lt;/pre&gt;&lt;pre&gt;&lt;font style=&quot;color: rgb(230, 230, 230);&quot;&gt;&lt;br&gt;&lt;/font&gt;&lt;/pre&gt;&lt;pre&gt;&lt;font style=&quot;color: rgb(230, 230, 230);&quot;&gt;&lt;br&gt;&lt;/font&gt;&lt;/pre&gt;&lt;pre&gt;&lt;br&gt;&lt;/pre&gt;" style="rounded=0;whiteSpace=wrap;html=1;" parent="aZcO3HgMEun3apKBfQWt-92" vertex="1">
          <mxGeometry x="170" y="120" width="1000" height="460" as="geometry" />
        </mxCell>
        <mxCell id="aZcO3HgMEun3apKBfQWt-138" value="&lt;h4&gt;&lt;font color=&quot;#006633&quot;&gt;Preprocessing &amp;amp;&lt;br&gt;&lt;/font&gt;&lt;font color=&quot;#006633&quot;&gt;Base Model:&lt;br&gt;&lt;/font&gt;&lt;font color=&quot;#006633&quot;&gt;EfficientNetV2B2&lt;/font&gt;&lt;/h4&gt;" style="text;html=1;align=center;verticalAlign=middle;resizable=0;points=[];autosize=1;strokeColor=none;fillColor=none;fontSize=14;" parent="aZcO3HgMEun3apKBfQWt-92" vertex="1">
          <mxGeometry x="360" y="450" width="140" height="100" as="geometry" />
        </mxCell>
        <mxCell id="aZcO3HgMEun3apKBfQWt-141" value="&lt;h2&gt;&lt;font style=&quot;color: rgb(234, 107, 102);&quot;&gt;Custom CNN Layers&lt;/font&gt;&lt;/h2&gt;" style="text;html=1;align=center;verticalAlign=middle;whiteSpace=wrap;rounded=0;" parent="aZcO3HgMEun3apKBfQWt-92" vertex="1">
          <mxGeometry x="500" y="430" width="220" height="220" as="geometry" />
        </mxCell>
        <mxCell id="aZcO3HgMEun3apKBfQWt-142" value="&lt;h3&gt;&lt;b&gt;&lt;font style=&quot;color: rgb(51, 51, 255);&quot;&gt;Initial Training&amp;nbsp;&lt;br&gt;&lt;/font&gt;&lt;/b&gt;&lt;b&gt;&lt;font style=&quot;color: rgb(51, 51, 255);&quot;&gt;Phase&lt;/font&gt;&lt;/b&gt;&lt;/h3&gt;" style="text;html=1;align=center;verticalAlign=middle;whiteSpace=wrap;rounded=0;fontSize=13;" parent="aZcO3HgMEun3apKBfQWt-92" vertex="1">
          <mxGeometry x="610" y="430" width="260" height="140" as="geometry" />
        </mxCell>
        <mxCell id="aZcO3HgMEun3apKBfQWt-143" value="&lt;h3&gt;Fine-Tuning&lt;br&gt;Phase&lt;/h3&gt;" style="text;html=1;align=center;verticalAlign=middle;whiteSpace=wrap;rounded=0;fontColor=#660033;" parent="aZcO3HgMEun3apKBfQWt-92" vertex="1">
          <mxGeometry x="800" y="450" width="120" height="30" as="geometry" />
        </mxCell>
        <mxCell id="aZcO3HgMEun3apKBfQWt-145" value="&lt;h3&gt;&lt;font style=&quot;&quot;&gt;Evaluation&lt;/font&gt;&lt;/h3&gt;" style="text;html=1;align=center;verticalAlign=middle;whiteSpace=wrap;rounded=0;fontColor=#00994D;" parent="aZcO3HgMEun3apKBfQWt-92" vertex="1">
          <mxGeometry x="980" y="430" width="60" height="30" as="geometry" />
        </mxCell>
        <object label="FRONT&#xa;Front1" id="1">
          <mxCell style="" parent="0" />
        </object>
        <mxCell id="aZcO3HgMEun3apKBfQWt-21" value="" style="outlineConnect=0;dashed=0;verticalLabelPosition=bottom;verticalAlign=top;align=center;html=1;shape=mxgraph.aws3.generic_database;fillColor=#66B2FF;gradientColor=none;shadow=1;" parent="1" vertex="1">
          <mxGeometry x="270" y="310" width="60" height="90" as="geometry" />
        </mxCell>
        <mxCell id="aZcO3HgMEun3apKBfQWt-22" value="" style="verticalLabelPosition=bottom;html=1;verticalAlign=top;strokeWidth=1;align=center;outlineConnect=0;dashed=0;outlineConnect=0;shape=mxgraph.aws3d.application;fillColor=#4286c5;strokeColor=#57A2D8;aspect=fixed;gradientColor=none;" parent="1" vertex="1">
          <mxGeometry x="685" y="306.98" width="101.85" height="113.02" as="geometry" />
        </mxCell>
        <mxCell id="aZcO3HgMEun3apKBfQWt-23" value="" style="verticalLabelPosition=bottom;html=1;verticalAlign=top;strokeWidth=1;align=center;outlineConnect=0;dashed=0;outlineConnect=0;shape=mxgraph.aws3d.application2;fillColor=#EA6B66;strokeColor=#EA6B66;aspect=fixed;shadow=1;gradientColor=default;" parent="1" vertex="1">
          <mxGeometry x="810" y="331.0799999999999" width="75.72" height="64.73" as="geometry" />
        </mxCell>
        <mxCell id="aZcO3HgMEun3apKBfQWt-26" value="" style="html=1;shadow=0;dashed=0;align=center;verticalAlign=middle;shape=mxgraph.arrows2.arrow;dy=0.67;dx=20;notch=0;fillColor=#fad9d5;strokeColor=#ae4132;" parent="1" vertex="1">
          <mxGeometry x="340" y="345.70000000000005" width="40" height="35.5" as="geometry" />
        </mxCell>
        <mxCell id="aZcO3HgMEun3apKBfQWt-28" value="" style="outlineConnect=0;dashed=0;verticalLabelPosition=bottom;verticalAlign=top;align=center;html=1;shape=mxgraph.aws3.codepipeline;fillColor=#759C3E;gradientColor=none;" parent="1" vertex="1">
          <mxGeometry x="390" y="293.97" width="90" height="122.05" as="geometry" />
        </mxCell>
        <mxCell id="aZcO3HgMEun3apKBfQWt-30" value="" style="endArrow=none;html=1;rounded=0;strokeColor=default;" parent="1" edge="1">
          <mxGeometry width="50" height="50" relative="1" as="geometry">
            <mxPoint x="430" y="296.02" as="sourcePoint" />
            <mxPoint x="595" y="216.01999999999998" as="targetPoint" />
          </mxGeometry>
        </mxCell>
        <mxCell id="aZcO3HgMEun3apKBfQWt-36" value="" style="endArrow=none;html=1;rounded=0;exitX=0.5;exitY=1;exitDx=0;exitDy=0;exitPerimeter=0;strokeColor=default;" parent="1" edge="1">
          <mxGeometry width="50" height="50" relative="1" as="geometry">
            <mxPoint x="420" y="405.70000000000005" as="sourcePoint" />
            <mxPoint x="595" y="520.0000195312499" as="targetPoint" />
          </mxGeometry>
        </mxCell>
        <mxCell id="aZcO3HgMEun3apKBfQWt-45" value="" style="outlineConnect=0;dashed=0;verticalLabelPosition=bottom;verticalAlign=top;align=center;html=1;shape=mxgraph.aws3.athena;fillColor=#33FF33;gradientColor=#00994D;shadow=1;" parent="1" vertex="1">
          <mxGeometry x="950" y="293.97" width="120" height="120" as="geometry" />
        </mxCell>
        <mxCell id="aZcO3HgMEun3apKBfQWt-47" value="" style="outlineConnect=0;dashed=0;verticalLabelPosition=bottom;verticalAlign=top;align=center;html=1;shape=mxgraph.aws3.ec2;fillColor=#F58534;gradientColor=none;" parent="1" vertex="1">
          <mxGeometry x="540" y="210" width="110" height="310" as="geometry" />
        </mxCell>
        <mxCell id="aZcO3HgMEun3apKBfQWt-49" value="" style="endArrow=none;html=1;rounded=0;strokeColor=default;" parent="1" source="aZcO3HgMEun3apKBfQWt-28" edge="1">
          <mxGeometry width="50" height="50" relative="1" as="geometry">
            <mxPoint x="380" y="350" as="sourcePoint" />
            <mxPoint x="545" y="270" as="targetPoint" />
          </mxGeometry>
        </mxCell>
        <mxCell id="aZcO3HgMEun3apKBfQWt-50" value="" style="endArrow=none;html=1;rounded=0;exitX=0.5;exitY=1;exitDx=0;exitDy=0;exitPerimeter=0;strokeColor=default;entryX=0;entryY=0.79;entryDx=0;entryDy=0;entryPerimeter=0;" parent="1" target="aZcO3HgMEun3apKBfQWt-47" edge="1">
          <mxGeometry width="50" height="50" relative="1" as="geometry">
            <mxPoint x="480" y="390" as="sourcePoint" />
            <mxPoint x="655" y="504.30001953124986" as="targetPoint" />
          </mxGeometry>
        </mxCell>
        <mxCell id="aZcO3HgMEun3apKBfQWt-51" value="" style="endArrow=none;html=1;rounded=0;exitX=0.5;exitY=0;exitDx=0;exitDy=0;exitPerimeter=0;strokeColor=default;" parent="1" source="aZcO3HgMEun3apKBfQWt-47" edge="1">
          <mxGeometry width="50" height="50" relative="1" as="geometry">
            <mxPoint x="593" y="250" as="sourcePoint" />
            <mxPoint x="685" y="342.3636872485571" as="targetPoint" />
            <Array as="points">
              <mxPoint x="640" y="290" />
            </Array>
          </mxGeometry>
        </mxCell>
        <mxCell id="aZcO3HgMEun3apKBfQWt-52" value="" style="endArrow=none;html=1;rounded=0;strokeColor=default;exitX=1;exitY=0.21;exitDx=0;exitDy=0;exitPerimeter=0;" parent="1" source="aZcO3HgMEun3apKBfQWt-47" edge="1">
          <mxGeometry width="50" height="50" relative="1" as="geometry">
            <mxPoint x="680" y="250" as="sourcePoint" />
            <mxPoint x="742" y="310" as="targetPoint" />
          </mxGeometry>
        </mxCell>
        <mxCell id="aZcO3HgMEun3apKBfQWt-55" value="" style="endArrow=none;html=1;rounded=0;strokeColor=default;exitX=0.5;exitY=1;exitDx=0;exitDy=0;exitPerimeter=0;" parent="1" source="aZcO3HgMEun3apKBfQWt-47" edge="1">
          <mxGeometry width="50" height="50" relative="1" as="geometry">
            <mxPoint x="570" y="500" as="sourcePoint" />
            <mxPoint x="735" y="420" as="targetPoint" />
            <Array as="points">
              <mxPoint x="650" y="470" />
            </Array>
          </mxGeometry>
        </mxCell>
        <mxCell id="aZcO3HgMEun3apKBfQWt-56" value="" style="endArrow=none;html=1;rounded=0;strokeColor=default;exitX=1;exitY=0.79;exitDx=0;exitDy=0;exitPerimeter=0;" parent="1" source="aZcO3HgMEun3apKBfQWt-47" edge="1">
          <mxGeometry width="50" height="50" relative="1" as="geometry">
            <mxPoint x="650" y="425.24" as="sourcePoint" />
            <mxPoint x="685" y="390.0017107942974" as="targetPoint" />
          </mxGeometry>
        </mxCell>
        <mxCell id="aZcO3HgMEun3apKBfQWt-57" value="" style="endArrow=none;html=1;rounded=0;strokeColor=default;exitX=0.54;exitY=0.027;exitDx=0;exitDy=0;exitPerimeter=0;" parent="1" source="aZcO3HgMEun3apKBfQWt-22" edge="1">
          <mxGeometry width="50" height="50" relative="1" as="geometry">
            <mxPoint x="750" y="310" as="sourcePoint" />
            <mxPoint x="852" y="331.08000000000004" as="targetPoint" />
            <Array as="points">
              <mxPoint x="820" y="330" />
            </Array>
          </mxGeometry>
        </mxCell>
        <mxCell id="aZcO3HgMEun3apKBfQWt-58" value="" style="endArrow=none;html=1;rounded=0;strokeColor=default;exitX=1.031;exitY=0.292;exitDx=0;exitDy=0;exitPerimeter=0;" parent="1" source="aZcO3HgMEun3apKBfQWt-22" edge="1">
          <mxGeometry width="50" height="50" relative="1" as="geometry">
            <mxPoint x="775" y="416.01828920570256" as="sourcePoint" />
            <mxPoint x="810" y="351.02" as="targetPoint" />
            <Array as="points">
              <mxPoint x="800" y="350" />
            </Array>
          </mxGeometry>
        </mxCell>
        <mxCell id="aZcO3HgMEun3apKBfQWt-59" value="" style="endArrow=none;html=1;rounded=0;strokeColor=default;exitX=1.031;exitY=0.735;exitDx=0;exitDy=0;exitPerimeter=0;" parent="1" source="aZcO3HgMEun3apKBfQWt-22" edge="1">
          <mxGeometry width="50" height="50" relative="1" as="geometry">
            <mxPoint x="790.00735" y="395.8097" as="sourcePoint" />
            <mxPoint x="810" y="375.76" as="targetPoint" />
            <Array as="points">
              <mxPoint x="800" y="380" />
            </Array>
          </mxGeometry>
        </mxCell>
        <mxCell id="aZcO3HgMEun3apKBfQWt-61" value="" style="endArrow=none;html=1;rounded=0;strokeColor=default;" parent="1" edge="1">
          <mxGeometry width="50" height="50" relative="1" as="geometry">
            <mxPoint x="730" y="420" as="sourcePoint" />
            <mxPoint x="850" y="395.80999999999995" as="targetPoint" />
            <Array as="points">
              <mxPoint x="790" y="400" />
            </Array>
          </mxGeometry>
        </mxCell>
        <mxCell id="aZcO3HgMEun3apKBfQWt-62" value="" style="html=1;shadow=0;dashed=0;align=center;verticalAlign=middle;shape=mxgraph.arrows2.arrow;dy=0.67;dx=20;notch=0;fillColor=#fad9d5;strokeColor=#ae4132;" parent="1" vertex="1">
          <mxGeometry x="900" y="337.25" width="40" height="35.5" as="geometry" />
        </mxCell>
        <mxCell id="aZcO3HgMEun3apKBfQWt-63" value="" style="verticalLabelPosition=bottom;verticalAlign=top;html=1;shape=mxgraph.basic.frame;dx=10;whiteSpace=wrap;fillColor=#ffcc99;strokeColor=#36393d;strokeWidth=1;" parent="1" vertex="1">
          <mxGeometry x="170" y="120" width="1000" height="470" as="geometry" />
        </mxCell>
        <mxCell id="aZcO3HgMEun3apKBfQWt-67" value="" style="outlineConnect=0;dashed=0;verticalLabelPosition=bottom;verticalAlign=top;align=center;html=1;shape=mxgraph.aws3.generic_database;fillColor=#66B2FF;gradientColor=none;shadow=1;" parent="1" vertex="1">
          <mxGeometry x="270" y="310" width="60" height="90" as="geometry" />
        </mxCell>
        <mxCell id="aZcO3HgMEun3apKBfQWt-68" value="" style="verticalLabelPosition=bottom;html=1;verticalAlign=top;strokeWidth=1;align=center;outlineConnect=0;dashed=0;outlineConnect=0;shape=mxgraph.aws3d.application;fillColor=#4286c5;strokeColor=#57A2D8;aspect=fixed;gradientColor=none;" parent="1" vertex="1">
          <mxGeometry x="685" y="306.98" width="101.85" height="113.02" as="geometry" />
        </mxCell>
        <mxCell id="aZcO3HgMEun3apKBfQWt-70" value="" style="html=1;shadow=0;dashed=0;align=center;verticalAlign=middle;shape=mxgraph.arrows2.arrow;dy=0.67;dx=20;notch=0;fillColor=#fad9d5;strokeColor=#ae4132;" parent="1" vertex="1">
          <mxGeometry x="340" y="345.70000000000005" width="40" height="35.5" as="geometry" />
        </mxCell>
        <mxCell id="aZcO3HgMEun3apKBfQWt-71" value="" style="outlineConnect=0;dashed=0;verticalLabelPosition=bottom;verticalAlign=top;align=center;html=1;shape=mxgraph.aws3.codepipeline;fillColor=#759C3E;gradientColor=none;" parent="1" vertex="1">
          <mxGeometry x="390" y="293.97" width="90" height="122.05" as="geometry" />
        </mxCell>
        <mxCell id="aZcO3HgMEun3apKBfQWt-72" value="" style="endArrow=none;html=1;rounded=0;strokeColor=default;" parent="1" edge="1">
          <mxGeometry width="50" height="50" relative="1" as="geometry">
            <mxPoint x="430" y="296.02" as="sourcePoint" />
            <mxPoint x="595" y="216.01999999999998" as="targetPoint" />
          </mxGeometry>
        </mxCell>
        <mxCell id="aZcO3HgMEun3apKBfQWt-73" value="" style="endArrow=none;html=1;rounded=0;exitX=0.5;exitY=1;exitDx=0;exitDy=0;exitPerimeter=0;strokeColor=default;" parent="1" edge="1">
          <mxGeometry width="50" height="50" relative="1" as="geometry">
            <mxPoint x="420" y="405.70000000000005" as="sourcePoint" />
            <mxPoint x="595" y="520.0000195312499" as="targetPoint" />
          </mxGeometry>
        </mxCell>
        <mxCell id="aZcO3HgMEun3apKBfQWt-74" value="" style="outlineConnect=0;dashed=0;verticalLabelPosition=bottom;verticalAlign=top;align=center;html=1;shape=mxgraph.aws3.athena;fillColor=#33FF33;gradientColor=#00994D;shadow=1;" parent="1" vertex="1">
          <mxGeometry x="950" y="293.97" width="120" height="120" as="geometry" />
        </mxCell>
        <mxCell id="aZcO3HgMEun3apKBfQWt-75" value="" style="outlineConnect=0;dashed=0;verticalLabelPosition=bottom;verticalAlign=top;align=center;html=1;shape=mxgraph.aws3.ec2;fillColor=#F58534;gradientColor=none;" parent="1" vertex="1">
          <mxGeometry x="540" y="210" width="110" height="310" as="geometry" />
        </mxCell>
        <mxCell id="aZcO3HgMEun3apKBfQWt-76" value="" style="endArrow=none;html=1;rounded=0;strokeColor=default;" parent="1" source="aZcO3HgMEun3apKBfQWt-71" edge="1">
          <mxGeometry width="50" height="50" relative="1" as="geometry">
            <mxPoint x="380" y="350" as="sourcePoint" />
            <mxPoint x="545" y="270" as="targetPoint" />
          </mxGeometry>
        </mxCell>
        <mxCell id="aZcO3HgMEun3apKBfQWt-77" value="" style="endArrow=none;html=1;rounded=0;exitX=0.5;exitY=1;exitDx=0;exitDy=0;exitPerimeter=0;strokeColor=default;entryX=0;entryY=0.79;entryDx=0;entryDy=0;entryPerimeter=0;" parent="1" target="aZcO3HgMEun3apKBfQWt-75" edge="1">
          <mxGeometry width="50" height="50" relative="1" as="geometry">
            <mxPoint x="480" y="390" as="sourcePoint" />
            <mxPoint x="655" y="504.30001953124986" as="targetPoint" />
          </mxGeometry>
        </mxCell>
        <mxCell id="aZcO3HgMEun3apKBfQWt-78" value="" style="endArrow=none;html=1;rounded=0;exitX=0.5;exitY=0;exitDx=0;exitDy=0;exitPerimeter=0;strokeColor=default;" parent="1" source="aZcO3HgMEun3apKBfQWt-75" edge="1">
          <mxGeometry width="50" height="50" relative="1" as="geometry">
            <mxPoint x="593" y="250" as="sourcePoint" />
            <mxPoint x="685" y="342.3636872485571" as="targetPoint" />
            <Array as="points">
              <mxPoint x="640" y="290" />
            </Array>
          </mxGeometry>
        </mxCell>
        <mxCell id="aZcO3HgMEun3apKBfQWt-79" value="" style="endArrow=none;html=1;rounded=0;strokeColor=default;exitX=1;exitY=0.21;exitDx=0;exitDy=0;exitPerimeter=0;" parent="1" source="aZcO3HgMEun3apKBfQWt-75" edge="1">
          <mxGeometry width="50" height="50" relative="1" as="geometry">
            <mxPoint x="680" y="250" as="sourcePoint" />
            <mxPoint x="742" y="310" as="targetPoint" />
          </mxGeometry>
        </mxCell>
        <mxCell id="aZcO3HgMEun3apKBfQWt-80" value="" style="endArrow=none;html=1;rounded=0;strokeColor=default;exitX=0.5;exitY=1;exitDx=0;exitDy=0;exitPerimeter=0;" parent="1" source="aZcO3HgMEun3apKBfQWt-75" edge="1">
          <mxGeometry width="50" height="50" relative="1" as="geometry">
            <mxPoint x="570" y="500" as="sourcePoint" />
            <mxPoint x="735" y="420" as="targetPoint" />
            <Array as="points">
              <mxPoint x="650" y="470" />
            </Array>
          </mxGeometry>
        </mxCell>
        <mxCell id="aZcO3HgMEun3apKBfQWt-81" value="" style="endArrow=none;html=1;rounded=0;strokeColor=default;exitX=1;exitY=0.79;exitDx=0;exitDy=0;exitPerimeter=0;" parent="1" source="aZcO3HgMEun3apKBfQWt-75" edge="1">
          <mxGeometry width="50" height="50" relative="1" as="geometry">
            <mxPoint x="650" y="425.24" as="sourcePoint" />
            <mxPoint x="685" y="390.0017107942974" as="targetPoint" />
          </mxGeometry>
        </mxCell>
        <mxCell id="aZcO3HgMEun3apKBfQWt-82" value="" style="endArrow=none;html=1;rounded=0;strokeColor=default;exitX=0.54;exitY=0.027;exitDx=0;exitDy=0;exitPerimeter=0;" parent="1" source="aZcO3HgMEun3apKBfQWt-68" edge="1">
          <mxGeometry width="50" height="50" relative="1" as="geometry">
            <mxPoint x="750" y="310" as="sourcePoint" />
            <mxPoint x="852" y="331.08000000000004" as="targetPoint" />
            <Array as="points">
              <mxPoint x="820" y="330" />
            </Array>
          </mxGeometry>
        </mxCell>
        <mxCell id="aZcO3HgMEun3apKBfQWt-83" value="" style="endArrow=none;html=1;rounded=0;strokeColor=default;exitX=1.031;exitY=0.292;exitDx=0;exitDy=0;exitPerimeter=0;" parent="1" source="aZcO3HgMEun3apKBfQWt-68" edge="1">
          <mxGeometry width="50" height="50" relative="1" as="geometry">
            <mxPoint x="775" y="416.01828920570256" as="sourcePoint" />
            <mxPoint x="810" y="351.02" as="targetPoint" />
            <Array as="points">
              <mxPoint x="800" y="350" />
            </Array>
          </mxGeometry>
        </mxCell>
        <mxCell id="aZcO3HgMEun3apKBfQWt-84" value="" style="endArrow=none;html=1;rounded=0;strokeColor=default;exitX=1.031;exitY=0.735;exitDx=0;exitDy=0;exitPerimeter=0;" parent="1" source="aZcO3HgMEun3apKBfQWt-68" edge="1">
          <mxGeometry width="50" height="50" relative="1" as="geometry">
            <mxPoint x="790.00735" y="395.8097" as="sourcePoint" />
            <mxPoint x="810" y="375.76" as="targetPoint" />
            <Array as="points">
              <mxPoint x="800" y="380" />
            </Array>
          </mxGeometry>
        </mxCell>
        <mxCell id="aZcO3HgMEun3apKBfQWt-85" value="" style="endArrow=none;html=1;rounded=0;strokeColor=default;" parent="1" edge="1">
          <mxGeometry width="50" height="50" relative="1" as="geometry">
            <mxPoint x="730" y="420" as="sourcePoint" />
            <mxPoint x="850" y="395.80999999999995" as="targetPoint" />
            <Array as="points">
              <mxPoint x="790" y="400" />
            </Array>
          </mxGeometry>
        </mxCell>
        <mxCell id="aZcO3HgMEun3apKBfQWt-86" value="" style="html=1;shadow=0;dashed=0;align=center;verticalAlign=middle;shape=mxgraph.arrows2.arrow;dy=0.67;dx=20;notch=0;fillColor=#fad9d5;strokeColor=#ae4132;" parent="1" vertex="1">
          <mxGeometry x="900" y="337.25" width="40" height="35.5" as="geometry" />
        </mxCell>
        <mxCell id="aZcO3HgMEun3apKBfQWt-93" value="Untitled Layer" style="" parent="0" />
        <mxCell id="aZcO3HgMEun3apKBfQWt-137" value="&lt;h1&gt;&lt;font face=&quot;Verdana&quot; style=&quot;font-size: 14px; color: rgb(51, 51, 255);&quot;&gt;DATASET&lt;/font&gt;&lt;/h1&gt;" style="text;html=1;align=center;verticalAlign=middle;whiteSpace=wrap;rounded=0;" parent="aZcO3HgMEun3apKBfQWt-93" vertex="1">
          <mxGeometry x="260" y="410" width="80" height="50" as="geometry" />
        </mxCell>
      </root>
    </mxGraphModel>
  </diagram>
</mxfile>
